<svg xmlns="http://www.w3.org/2000/svg" viewBox="0 0 192 192">
  <rect width="192" height="192" rx="40" fill="#f3efe3"/>
  <line x1="96" y1="30" x2="96" y2="162" stroke="#e6b3a8" stroke-width="3" stroke-dasharray="6 8"/>
  <line x1="30" y1="96" x2="162" y2="96" stroke="#e6b3a8" stroke-width="3" stroke-dasharray="6 8"/>
  <g transform="translate(31,20) scale(1.3)"><path d="M43,94 l-5,7 M43,94 l0,8 M43,94 l5,7" stroke="#F0923E" stroke-width="2.6" fill="none" stroke-linecap="round"/><path d="M57,94 l-5,7 M57,94 l0,8 M57,94 l5,7" stroke="#F0923E" stroke-width="2.6" fill="none" stroke-linecap="round"/><ellipse cx="19" cy="63" rx="8" ry="13" fill="#F7C948" stroke="#E4A72C" stroke-width="1.6"/><ellipse cx="81" cy="63" rx="8" ry="13" fill="#F7C948" stroke="#E4A72C" stroke-width="1.6"/><ellipse cx="50" cy="60" rx="31" ry="33" fill="#F7C948" stroke="#E4A72C" stroke-width="2"/><ellipse cx="50" cy="68" rx="18" ry="19" fill="#FCE7A0"/><ellipse cx="37" cy="45" rx="7" ry="4.5" fill="#fff" opacity="0.4"/><circle cx="27" cy="67" r="5.2" fill="#F49A93" opacity="0.6"/><circle cx="73" cy="67" r="5.2" fill="#F49A93" opacity="0.6"/><path d="M44,56 Q50,55 56,56 Q50,66 44,56 Z" fill="#F0923E"/><circle cx="40.5" cy="51" r="4.7" fill="#3a3330"/><circle cx="59.5" cy="51" r="4.7" fill="#3a3330"/><circle cx="42.2" cy="49" r="1.7" fill="#fff"/><circle cx="61.2" cy="49" r="1.7" fill="#fff"/><path d="M22,40 Q26,30 31,38 Q37,28 43,37 Q50,27 57,37 Q63,28 69,38 Q74,30 78,40 Q50,45 22,40 Z" fill="#FBF7EC" stroke="#E0D6BC" stroke-width="1.4" stroke-linejoin="round"/><ellipse cx="35" cy="34" rx="4" ry="2.4" fill="#fff" opacity="0.6"/><path d="M14,90 Q24,84 34,90 Q24,95 14,90 Z" fill="#FBF7EC" stroke="#E0D6BC" stroke-width="1"/></g>
</svg>
